<?xml version="1.0" encoding="UTF-8"?>
<svg width="1600" height="1200" xmlns="http://www.w3.org/2000/svg">
  <defs>
    <style>
      .title { font: bold 28px sans-serif; fill: #1a1a1a; }
      .section-title { font: bold 18px sans-serif; fill: #333; }
      .subtitle { font: bold 14px sans-serif; fill: #555; }
      .label { font: 13px sans-serif; fill: #333; }
      .small-label { font: 11px sans-serif; fill: #666; }
      .tiny { font: 9px sans-serif; fill: #888; }
      .white-text { fill: white; font: bold 12px sans-serif; }
      .white-small { fill: white; font: 10px sans-serif; }
      
      .vpc-border { fill: #e8f5e9; stroke: #2e7d32; stroke-width: 4; }
      .az-box { fill: #ffffff; stroke: #757575; stroke-width: 2; stroke-dasharray: 8,4; }
      .public-subnet { fill: #e3f2fd; stroke: #1976d2; stroke-width: 2; }
      .private-subnet { fill: #fff3e0; stroke: #f57c00; stroke-width: 2; }
      
      .alb-box { fill: #4caf50; stroke: #2e7d32; stroke-width: 2; }
      .ecs-box { fill: #2196f3; stroke: #0d47a1; stroke-width: 2; }
      .rds-box { fill: #e91e63; stroke: #880e4f; stroke-width: 2; }
      .ecr-box { fill: #9c27b0; stroke: #4a148c; stroke-width: 2; }
      .iam-box { fill: #ff9800; stroke: #e65100; stroke-width: 2; }
      .cw-box { fill: #00bcd4; stroke: #006064; stroke-width: 2; }
      .ssm-box { fill: #795548; stroke: #3e2723; stroke-width: 2; }
      .nat-box { fill: #ff5722; stroke: #bf360c; stroke-width: 2; }
      .igw-box { fill: #03a9f4; stroke: #01579b; stroke-width: 2; }
      .sg-box { fill: #ffc107; stroke: #f57f17; stroke-width: 2; }
      .cluster-box { fill: #673ab7; stroke: #311b92; stroke-width: 2; }
      
      .arrow { stroke: #333; stroke-width: 2.5; fill: none; marker-end: url(#arrowhead); }
      .dotted-arrow { stroke: #666; stroke-width: 2; fill: none; stroke-dasharray: 6,4; marker-end: url(#arrowhead-dotted); }
      .db-arrow { stroke: #e91e63; stroke-width: 2.5; fill: none; marker-end: url(#arrowhead-db); }
    </style>
    
    <marker id="arrowhead" markerWidth="12" markerHeight="12" refX="10" refY="4" orient="auto">
      <polygon points="0 0, 12 4, 0 8" fill="#333" />
    </marker>
    <marker id="arrowhead-dotted" markerWidth="12" markerHeight="12" refX="10" refY="4" orient="auto">
      <polygon points="0 0, 12 4, 0 8" fill="#666" />
    </marker>
    <marker id="arrowhead-db" markerWidth="12" markerHeight="12" refX="10" refY="4" orient="auto">
      <polygon points="0 0, 12 4, 0 8" fill="#e91e63" />
    </marker>
  </defs>

  <!-- Title -->
  <text x="800" y="35" text-anchor="middle" class="title">AWS ECS Fargate Architecture - Complete Infrastructure</text>
  <text x="800" y="60" text-anchor="middle" class="subtitle">Region: us-east-1 | Environment: Production</text>

  <!-- Internet Users -->
  <ellipse cx="800" cy="110" rx="100" ry="35" fill="#ffffff" stroke="#333" stroke-width="3"/>
  <text x="800" y="115" text-anchor="middle" class="section-title">Internet Users</text>

  <!-- Main VPC Container -->
  <rect x="30" y="170" width="1540" height="900" class="vpc-border" rx="10"/>
  <text x="50" y="200" class="section-title">VPC: prod-ecs-vpc (10.0.0.0/16)</text>

  <!-- Internet Gateway -->
  <rect x="700" y="220" width="200" height="60" class="igw-box" rx="8"/>
  <text x="800" y="245" text-anchor="middle" class="white-text">Internet Gateway</text>
  <text x="800" y="265" text-anchor="middle" class="white-small">(IGW)</text>

  <!-- Route Tables Info -->
  <rect x="950" y="220" width="180" height="60" fill="#fff9c4" stroke="#f57f17" stroke-width="2" rx="5"/>
  <text x="1040" y="240" text-anchor="middle" class="label">Route Tables</text>
  <text x="1040" y="258" text-anchor="middle" class="small-label">Public RT → IGW</text>
  <text x="1040" y="273" text-anchor="middle" class="small-label">Private RT → NAT</text>

  <!-- ========== AVAILABILITY ZONE 1 ========== -->
  <rect x="60" y="310" width="720" height="720" class="az-box" rx="8"/>
  <text x="80" y="340" class="section-title">Availability Zone: us-east-1a</text>

  <!-- Public Subnet 1 -->
  <rect x="80" y="360" width="680" height="220" class="public-subnet" rx="8"/>
  <text x="100" y="385" class="subtitle">Public Subnet: 10.0.101.0/24</text>

  <!-- Frontend ALB 1 -->
  <rect x="100" y="400" width="140" height="90" class="alb-box" rx="6"/>
  <text x="170" y="425" text-anchor="middle" class="white-text">Frontend ALB</text>
  <text x="170" y="445" text-anchor="middle" class="white-small">production-frontend-alb</text>
  <text x="170" y="462" text-anchor="middle" class="white-small">Port: 80/443</text>
  <text x="170" y="478" text-anchor="middle" class="white-small">Target: IP</text>

  <!-- Backend ALB 1 -->
  <rect x="270" y="400" width="140" height="90" class="alb-box" rx="6"/>
  <text x="340" y="425" text-anchor="middle" class="white-text">Backend ALB</text>
  <text x="340" y="445" text-anchor="middle" class="white-small">production-backend-alb</text>
  <text x="340" y="462" text-anchor="middle" class="white-small">Port: 80/443</text>
  <text x="340" y="478" text-anchor="middle" class="white-small">Target: IP</text>

  <!-- NAT Gateway 1 -->
  <rect x="450" y="400" width="140" height="90" class="nat-box" rx="6"/>
  <text x="520" y="425" text-anchor="middle" class="white-text">NAT Gateway</text>
  <text x="520" y="445" text-anchor="middle" class="white-small">nat-az1</text>
  <text x="520" y="462" text-anchor="middle" class="white-small">Elastic IP</text>
  <text x="520" y="478" text-anchor="middle" class="white-small">Outbound Only</text>

  <!-- Security Groups Info 1 -->
  <rect x="620" y="400" width="120" height="90" class="sg-box" rx="6"/>
  <text x="680" y="420" text-anchor="middle" class="label">Security Groups</text>
  <text x="680" y="438" text-anchor="middle" class="tiny">Frontend ALB SG</text>
  <text x="680" y="452" text-anchor="middle" class="tiny">Backend ALB SG</text>
  <text x="680" y="466" text-anchor="middle" class="tiny">Frontend ECS SG</text>
  <text x="680" y="480" text-anchor="middle" class="tiny">Backend ECS SG</text>

  <!-- Private Subnet 1 -->
  <rect x="80" y="600" width="680" height="410" class="private-subnet" rx="8"/>
  <text x="100" y="625" class="subtitle">Private Subnet: 10.0.1.0/24</text>

  <!-- Frontend ECS Task 1 -->
  <rect x="100" y="645" width="150" height="110" class="ecs-box" rx="6"/>
  <text x="175" y="665" text-anchor="middle" class="white-text">Frontend Task</text>
  <text x="175" y="683" text-anchor="middle" class="white-small">ECS Fargate</text>
  <text x="175" y="700" text-anchor="middle" class="white-small">CPU: 256</text>
  <text x="175" y="715" text-anchor="middle" class="white-small">Memory: 512 MB</text>
  <text x="175" y="730" text-anchor="middle" class="white-small">Port: 80</text>
  <text x="175" y="745" text-anchor="middle" class="white-small">Desired: 2</text>

  <!-- Backend ECS Task 1 -->
  <rect x="280" y="645" width="150" height="110" class="ecs-box" rx="6"/>
  <text x="355" y="665" text-anchor="middle" class="white-text">Backend Task</text>
  <text x="355" y="683" text-anchor="middle" class="white-small">ECS Fargate</text>
  <text x="355" y="700" text-anchor="middle" class="white-small">CPU: 512</text>
  <text x="355" y="715" text-anchor="middle" class="white-small">Memory: 1024 MB</text>
  <text x="355" y="730" text-anchor="middle" class="white-small">Port: 3000</text>
  <text x="355" y="745" text-anchor="middle" class="white-small">Desired: 2</text>

  <!-- RDS MySQL -->
  <rect x="480" y="645" width="250" height="140" class="rds-box" rx="6"/>
  <text x="605" y="670" text-anchor="middle" class="white-text">RDS MySQL 8.0</text>
  <text x="605" y="690" text-anchor="middle" class="white-small">production-mysql</text>
  <text x="605" y="708" text-anchor="middle" class="white-small">Instance: db.t3.micro</text>
  <text x="605" y="725" text-anchor="middle" class="white-small">Storage: 20 GB (gp3)</text>
  <text x="605" y="742" text-anchor="middle" class="white-small">Port: 3306</text>
  <text x="605" y="759" text-anchor="middle" class="white-small">Multi-AZ: Disabled</text>
  <text x="605" y="776" text-anchor="middle" class="white-small">DB Subnet Group</text>

  <!-- RDS Security Group -->
  <rect x="480" y="805" width="250" height="50" class="sg-box" rx="6"/>
  <text x="605" y="825" text-anchor="middle" class="label">RDS Security Group</text>
  <text x="605" y="843" text-anchor="middle" class="small-label">Ingress: 3306 from Backend ECS SG</text>

  <!-- ECS Cluster Info -->
  <rect x="100" y="780" width="320" height="70" class="cluster-box" rx="6"/>
  <text x="260" y="800" text-anchor="middle" class="white-text">ECS Cluster: prod-ecs-cluster</text>
  <text x="260" y="818" text-anchor="middle" class="white-small">Launch Type: Fargate</text>
  <text x="260" y="835" text-anchor="middle" class="white-small">Capacity Providers: FARGATE + FARGATE_SPOT</text>

  <!-- Auto Scaling Info -->
  <rect x="100" y="870" width="320" height="50" fill="#e1bee7" stroke="#4a148c" stroke-width="2" rx="6"/>
  <text x="260" y="890" text-anchor="middle" class="label">Auto Scaling Policy</text>
  <text x="260" y="908" text-anchor="middle" class="small-label">Target CPU: 70% | Min: 2 | Max: 20</text>

  <!-- CloudWatch Logs -->
  <rect x="480" y="870" width="250" height="50" class="cw-box" rx="6"/>
  <text x="605" y="890" text-anchor="middle" class="white-text">CloudWatch Log Groups</text>
  <text x="605" y="908" text-anchor="middle" class="white-small">/ecs/production-frontend | /ecs/production-backend</text>

  <!-- ========== AVAILABILITY ZONE 2 ========== -->
  <rect x="820" y="310" width="720" height="720" class="az-box" rx="8"/>
  <text x="840" y="340" class="section-title">Availability Zone: us-east-1b</text>

  <!-- Public Subnet 2 -->
  <rect x="840" y="360" width="680" height="220" class="public-subnet" rx="8"/>
  <text x="860" y="385" class="subtitle">Public Subnet: 10.0.102.0/24</text>

  <!-- Frontend ALB 2 -->
  <rect x="860" y="400" width="140" height="90" class="alb-box" rx="6"/>
  <text x="930" y="425" text-anchor="middle" class="white-text">Frontend ALB</text>
  <text x="930" y="445" text-anchor="middle" class="white-small">production-frontend-alb</text>
  <text x="930" y="462" text-anchor="middle" class="white-small">Port: 80/443</text>
  <text x="930" y="478" text-anchor="middle" class="white-small">Target: IP</text>

  <!-- Backend ALB 2 -->
  <rect x="1030" y="400" width="140" height="90" class="alb-box" rx="6"/>
  <text x="1100" y="425" text-anchor="middle" class="white-text">Backend ALB</text>
  <text x="1100" y="445" text-anchor="middle" class="white-small">production-backend-alb</text>
  <text x="1100" y="462" text-anchor="middle" class="white-small">Port: 80/443</text>
  <text x="1100" y="478" text-anchor="middle" class="white-small">Target: IP</text>

  <!-- NAT Gateway 2 -->
  <rect x="1210" y="400" width="140" height="90" class="nat-box" rx="6"/>
  <text x="1280" y="425" text-anchor="middle" class="white-text">NAT Gateway</text>
  <text x="1280" y="445" text-anchor="middle" class="white-small">nat-az2</text>
  <text x="1280" y="462" text-anchor="middle" class="white-small">Elastic IP</text>
  <text x="1280" y="478" text-anchor="middle" class="white-small">Outbound Only</text>

  <!-- Security Groups Info 2 -->
  <rect x="1380" y="400" width="120" height="90" class="sg-box" rx="6"/>
  <text x="1440" y="420" text-anchor="middle" class="label">Security Groups</text>
  <text x="1440" y="438" text-anchor="middle" class="tiny">Frontend ALB SG</text>
  <text x="1440" y="452" text-anchor="middle" class="tiny">Backend ALB SG</text>
  <text x="1440" y="466" text-anchor="middle" class="tiny">Frontend ECS SG</text>
  <text x="1440" y="480" text-anchor="middle" class="tiny">Backend ECS SG</text>

  <!-- Private Subnet 2 -->
  <rect x="840" y="600" width="680" height="410" class="private-subnet" rx="8"/>
  <text x="860" y="625" class="subtitle">Private Subnet: 10.0.2.0/24</text>

  <!-- Frontend ECS Task 2 -->
  <rect x="860" y="645" width="150" height="110" class="ecs-box" rx="6"/>
  <text x="935" y="665" text-anchor="middle" class="white-text">Frontend Task</text>
  <text x="935" y="683" text-anchor="middle" class="white-small">ECS Fargate</text>
  <text x="935" y="700" text-anchor="middle" class="white-small">CPU: 256</text>
  <text x="935" y="715" text-anchor="middle" class="white-small">Memory: 512 MB</text>
  <text x="935" y="730" text-anchor="middle" class="white-small">Port: 80</text>
  <text x="935" y="745" text-anchor="middle" class="white-small">Desired: 2</text>

  <!-- Backend ECS Task 2 -->
  <rect x="1040" y="645" width="150" height="110" class="ecs-box" rx="6"/>
  <text x="1115" y="665" text-anchor="middle" class="white-text">Backend Task</text>
  <text x="1115" y="683" text-anchor="middle" class="white-small">ECS Fargate</text>
  <text x="1115" y="700" text-anchor="middle" class="white-small">CPU: 512</text>
  <text x="1115" y="715" text-anchor="middle" class="white-small">Memory: 1024 MB</text>
  <text x="1115" y="730" text-anchor="middle" class="white-small">Port: 3000</text>
  <text x="1115" y="745" text-anchor="middle" class="white-small">Desired: 2</text>

  <!-- IAM Roles -->
  <rect x="1240" y="645" width="250" height="110" class="iam-box" rx="6"/>
  <text x="1365" y="670" text-anchor="middle" class="white-text">IAM Roles</text>
  <text x="1365" y="690" text-anchor="middle" class="white-small">Task Execution Role</text>
  <text x="1365" y="707" text-anchor="middle" class="white-small">- Pull ECR images</text>
  <text x="1365" y="722" text-anchor="middle" class="white-small">- Read SSM parameters</text>
  <text x="1365" y="737" text-anchor="middle" class="white-small">- Write CloudWatch logs</text>
  <text x="1365" y="752" text-anchor="middle" class="white-small">Task Role (App permissions)</text>

  <!-- ECR Repositories -->
  <rect x="860" y="780" width="320" height="70" class="ecr-box" rx="6"/>
  <text x="1020" y="800" text-anchor="middle" class="white-text">ECR Repositories</text>
  <text x="1020" y="818" text-anchor="middle" class="white-small">production-frontend | production-backend</text>
  <text x="1020" y="835" text-anchor="middle" class="white-small">Image Scanning: Enabled | Lifecycle: Keep 10</text>

  <!-- SSM Parameter Store -->
  <rect x="1240" y="780" width="250" height="70" class="ssm-box" rx="6"/>
  <text x="1365" y="805" text-anchor="middle" class="white-text">SSM Parameter Store</text>
  <text x="1365" y="823" text-anchor="middle" class="white-small">Secrets (SecureString)</text>
  <text x="1365" y="840" text-anchor="middle" class="white-small">DB credentials, API keys</text>

  <!-- Environment Variables -->
  <rect x="860" y="870" width="630" height="50" fill="#c8e6c9" stroke="#2e7d32" stroke-width="2" rx="6"/>
  <text x="1175" y="890" text-anchor="middle" class="label">Backend Environment Variables</text>
  <text x="1175" y="908" text-anchor="middle" class="small-label">DB_HOST | DB_PORT | DB_NAME (Auto-injected from RDS)</text>

  <!-- ========== ARROWS - User Traffic ========== -->
  <path d="M 750 135 L 170 400" class="arrow"/>
  <path d="M 850 135 L 930 400" class="arrow"/>
  <path d="M 770 135 L 340 400" class="arrow"/>
  <path d="M 830 135 L 1100 400" class="arrow"/>

  <!-- IGW to Public Subnets -->
  <path d="M 750 280 L 420 360" class="arrow"/>
  <path d="M 850 280 L 1180 360" class="arrow"/>

  <!-- ALB to ECS Tasks -->
  <path d="M 170 490 L 175 645" class="arrow"/>
  <path d="M 340 490 L 355 645" class="arrow"/>
  <path d="M 930 490 L 935 645" class="arrow"/>
  <path d="M 1100 490 L 1115 645" class="arrow"/>

  <!-- Backend ECS to RDS -->
  <path d="M 430 700 L 480 700" class="db-arrow"/>
  <path d="M 1040 700 L 730 700" class="db-arrow"/>

  <!-- ECS to NAT (Outbound) -->
  <path d="M 250 700 L 450 445" class="dotted-arrow"/>
  <path d="M 430 700 L 520 490" class="dotted-arrow"/>
  <path d="M 1010 700 L 1210 445" class="dotted-arrow"/>
  <path d="M 1040 700 L 1280 490" class="dotted-arrow"/>

  <!-- ECS to ECR -->
  <path d="M 250 755 L 860 815" class="dotted-arrow"/>
  <path d="M 430 755 L 860 815" class="dotted-arrow"/>
  <path d="M 1010 755 L 1180 815" class="dotted-arrow"/>
  <path d="M 1190 755 L 1180 815" class="dotted-arrow"/>

  <!-- ECS to CloudWatch -->
  <path d="M 250 755 L 480 895" class="dotted-arrow"/>
  <path d="M 430 755 L 480 895" class="dotted-arrow"/>
  <path d="M 860 755 L 730 895" class="dotted-arrow"/>
  <path d="M 1040 755 L 730 895" class="dotted-arrow"/>

  <!-- Backend ECS to SSM -->
  <path d="M 430 700 L 1240 815" class="dotted-arrow"/>
  <path d="M 1190 700 L 1240 815" class="dotted-arrow"/>

  <!-- ECS to IAM -->
  <path d="M 1190 700 L 1240 700" class="dotted-arrow"/>

  <!-- Legend -->
  <rect x="30" y="1090" width="1540" height="100" fill="#f5f5f5" stroke="#999" stroke-width="2" rx="8"/>
  <text x="50" y="1115" class="section-title">Legend</text>
  
  <!-- Traffic Flow -->
  <line x1="70" y1="1135" x2="140" y2="1135" class="arrow"/>
  <text x="150" y="1140" class="label">User/Data Traffic</text>
  
  <!-- Service Communication -->
  <line x1="300" y1="1135" x2="370" y2="1135" class="dotted-arrow"/>
  <text x="380" y="1140" class="label">Service Communication</text>
  
  <!-- Database Connection -->
  <line x1="570" y1="1135" x2="640" y2="1135" class="db-arrow"/>
  <text x="650" y="1140" class="label">Database Connection</text>

  <!-- Component Types -->
  <rect x="70" y="1155" width="60" height="25" class="alb-box" rx="3"/>
  <text x="140" y="1172" class="small-label">Load Balancer</text>
  
  <rect x="250" y="1155" width="60" height="25" class="ecs-box" rx="3"/>
  <text x="320" y="1172" class="small-label">ECS Fargate</text>
  
  <rect x="430" y="1155" width="60" height="25" class="rds-box" rx="3"/>
  <text x="500" y="1172" class="small-label">RDS Database</text>
  
  <rect x="610" y="1155" width="60" height="25" class="ecr-box" rx="3"/>
  <text x="680" y="1172" class="small-label">ECR Registry</text>
  
  <rect x="790" y="1155" width="60" height="25" class="iam-box" rx="3"/>
  <text x="860" y="1172" class="small-label">IAM Roles</text>
  
  <rect x="970" y="1155" width="60" height="25" class="cw-box" rx="3"/>
  <text x="1040" y="1172" class="small-label">CloudWatch</text>
  
  <rect x="1150" y="1155" width="60" height="25" class="ssm-box" rx="3"/>
  <text x="1220" y="1172" class="small-label">SSM Store</text>
  
  <rect x="1330" y="1155" width="60" height="25" class="nat-box" rx="3"/>
  <text x="1400" y="1172" class="small-label">NAT Gateway</text>

  <!-- Module Count -->
  <text x="1450" y="1115" class="label">Total Modules: 11</text>
  <text x="1450" y="1135" class="small-label">VPC | SG-ALB | SG-ECS | SG-RDS</text>
  <text x="1450" y="1152" class="small-label">ECR | ALB | ECS-Cluster</text>
  <text x="1450" y="1169" class="small-label">ECS-Service | RDS | IAM</text>
</svg>
